<?xml version="1.0" encoding="utf-8"?>
<!-- Generator: Adobe Illustrator 25.0.0, SVG Export Plug-In . SVG Version: 6.00 Build 0)  -->
<svg version="1.1" id="Layer_1" xmlns="http://www.w3.org/2000/svg" xmlns:xlink="http://www.w3.org/1999/xlink" x="0px" y="0px"
	 viewBox="0 0 2014 965" style="enable-background:new 0 0 2014 965;" xml:space="preserve">
<style type="text/css">
	.st0{fill:#3D4854;}
	.st1{fill:#00659E;}
	.st2{display:none;}
	.st3{display:inline;}
	.st4{fill:#FFFFFF;}
</style>
<g>
	<g>
		<path class="st0" d="M87.2,819.9v115.4H48.1V678.2h63.2c18.7,0,32.5,1,41.4,3.1c8.8,2.1,16.5,5.4,23.1,10.1c8.1,6,14.4,14,19,24.2
			c4.6,10.1,6.8,21.3,6.8,33.5s-2.3,23.4-6.8,33.7c-4.6,10.3-10.9,18.4-19,24.2c-6.6,4.7-14.3,8-23.1,10s-22.6,3-41.4,3H103
			L87.2,819.9L87.2,819.9z M89.9,785.7h10.7c23.2,0,38.6-2.5,46.4-7.6c7.7-5,11.6-13.9,11.6-26.7c0-13.7-4.1-23.4-12.4-29
			c-8.3-5.6-23.5-8.4-45.6-8.4H89.9V785.7z"/>
		<path class="st0" d="M278.7,820.3v115.1h-39.2V678.2h58.3c17.1,0,30.4,1.1,39.8,3.3s17.5,5.9,24.2,11.1c8,6.2,14.1,14.2,18.4,24.1
			c4.3,9.8,6.5,20.6,6.5,32.3c0,20.6-5,36.7-14.9,48.4c-10,11.7-24.6,18.7-44.1,21l88.5,117H369l-85.5-115.1H278.7z M281.3,787.8
			h7.6c22.1,0,36.8-2.6,44.1-7.7c7.3-5.2,10.9-14.3,10.9-27.4c0-14.2-3.9-24.2-11.7-30c-7.8-5.8-22.2-8.7-43.3-8.7h-7.6V787.8z"/>
		<path class="st0" d="M704.7,807.3c0,18.3-3.4,35.5-10.3,51.8c-6.8,16.3-16.8,30.8-29.9,43.6c-13.2,12.8-28.2,22.5-44.8,29.3
			s-34.1,10.2-52.3,10.2c-18.5,0-36.2-3.4-53-10.3c-16.8-6.8-31.6-16.6-44.5-29.2c-13.1-12.8-23.1-27.2-29.9-43.4
			s-10.2-33.5-10.2-52c0-18.4,3.4-35.7,10.2-52c6.8-16.3,16.7-30.9,29.9-43.7c13.1-12.8,28-22.5,44.6-29.2s34.3-10,52.9-10
			c18.5,0,36,3.3,52.6,10s31.4,16.4,44.5,29.2c13.1,13,23.1,27.7,29.9,44C701.3,771.9,704.7,789.1,704.7,807.3z M661.1,807.3
			c0-13-2.4-25.4-7.1-37.1c-4.7-11.7-11.6-22.1-20.5-31.3c-8.7-9-18.7-16-30.1-20.8s-23.4-7.3-36.1-7.3c-12.6,0-24.7,2.4-36.1,7.2
			c-11.4,4.8-21.6,11.8-30.5,20.9c-8.9,9-15.7,19.4-20.4,31.1c-4.7,11.7-7,24.1-7,37.2c0,13,2.3,25.3,7,36.9
			c4.7,11.6,11.5,22,20.4,31.1s19,16.1,30.4,20.9c11.4,4.8,23.4,7.2,36.2,7.2c12.5,0,24.4-2.4,35.7-7.2s21.5-11.8,30.5-20.9
			c8.9-9.1,15.7-19.5,20.5-31.2C658.8,832.4,661.1,820.2,661.1,807.3z"/>
		<path class="st0" d="M791.8,819.9v115.4h-39.2V678.2h63.2c18.7,0,32.5,1,41.4,3.1c8.8,2.1,16.5,5.4,23.1,10.1
			c8.1,6,14.4,14,19,24.2c4.6,10.1,6.8,21.3,6.8,33.5s-2.3,23.4-6.8,33.7c-4.6,10.3-10.9,18.4-19,24.2c-6.6,4.7-14.3,8-23.1,10
			s-22.6,3-41.4,3h-8.3L791.8,819.9L791.8,819.9z M794.4,785.7h10.7c23.2,0,38.6-2.5,46.4-7.6c7.7-5,11.6-13.9,11.6-26.7
			c0-13.7-4.1-23.4-12.4-29c-8.3-5.6-23.5-8.4-45.6-8.4h-10.7V785.7z"/>
		<path class="st0" d="M944.1,935.3V678.2h143.5v35.5H985.9v64.5h101.7v36.7H985.9V898h101.7v37.4H944.1V935.3z"/>
		<path class="st0" d="M1174.8,820.3v115.1h-39.2V678.2h58.3c17.1,0,30.4,1.1,39.8,3.3s17.5,5.9,24.2,11.1
			c8,6.2,14.1,14.2,18.4,24.1c4.3,9.8,6.5,20.6,6.5,32.3c0,20.6-5,36.7-14.9,48.4c-10,11.7-24.7,18.7-44.1,21l88.5,117H1265
			l-85.5-115.1H1174.8z M1177.4,787.8h7.6c22.1,0,36.8-2.6,44.1-7.7c7.3-5.2,10.9-14.3,10.9-27.4c0-14.2-3.9-24.2-11.7-30
			c-7.8-5.8-22.2-8.7-43.3-8.7h-7.6V787.8z"/>
		<path class="st0" d="M1420.2,713.6v221.7h-41.8V713.6H1310v-35.5h178.1v35.5H1420.2z"/>
		<path class="st0" d="M1520.8,935.3V678.2h41.8v257.2h-41.8V935.3z"/>
		<path class="st0" d="M1622.7,935.3V678.2h143.5v35.5h-101.7v64.5h101.7v36.7h-101.7V898h101.7v37.4h-143.5V935.3z"/>
		<path class="st0" d="M1799.4,883.9l33.4-15.5c3.2,11.5,9,20.2,17.4,26.3c8.4,6,19.2,9,32.3,9c12.4,0,22.3-3.5,29.6-10.4
			c7.3-6.9,11-16.2,11-27.8c0-15.1-12.5-28.6-37.6-40.4c-3.5-1.8-6.2-3-8.1-3.9c-28.3-13.8-47.2-26.3-56.7-37.5
			c-9.4-11.2-14.1-24.9-14.1-41c0-21,7.1-37.9,21.3-50.9c14.2-13,32.9-19.5,55.9-19.5c19,0,34.8,3.7,47.6,11
			c12.8,7.3,21.6,17.8,26.5,31.5l-32.7,16.9c-5.2-8.1-10.8-14-17-17.7c-6.1-3.7-13.2-5.6-21.2-5.6c-11.2,0-20.2,2.9-26.8,8.8
			c-6.6,5.9-9.9,13.7-9.9,23.5c0,15.5,14.5,29.9,43.6,43.2c2.2,1.1,4,1.9,5.3,2.5c25.4,11.7,42.9,23.2,52.3,34.3
			c9.5,11.2,14.2,25.2,14.2,41.9c0,24.4-7.7,43.7-23,58.1c-15.3,14.3-36.1,21.5-62.2,21.5c-21.9,0-39.8-5-53.8-15.1
			S1803.7,902.6,1799.4,883.9z"/>
	</g>
	<g>
		<polygon class="st0" points="48.1,22.8 197.2,22.8 197.2,223.2 506.1,223.2 506.1,22.8 655.2,22.8 655.2,408.8 534.7,582.8 
			506.1,582.8 506.1,371 197.2,369.3 197.2,582.8 48.1,582.8 		"/>
		<path class="st1" d="M671,440l-97.2,142.9h639.5c86.1,0,155.9-76.1,155.9-170l0,0c0-93.9-69.8-170-155.9-170H879.7
			c-18.4,0-33.4-16.1-33.6-36.1l0,0c-0.3-20.5,14.9-37.2,33.6-37.2h992.8l93.4-146.7H842.5c-83.2,0-150.7,73.5-150.7,164.2l0,0
			c0,90.7,67.5,164.2,150.7,164.2h333c22.5,0,40.7,19.9,40.7,44.3l0,0c0,24.5-18.2,44.3-40.7,44.3H671V440z"/>
		<path class="st0" d="M1294.8,242.9h183c-29,58.5-20.1,107.5,20.3,148.5c31.3,31.8,73,48.6,115.8,48.6h192.3v-88.7h-263.7
			l82.9-108.4h340.5v340h-366.7c-50.3,0-100.4-11.1-145.9-34.4c-28.2-14.5-52.2-32-72-52.6C1431.1,407.7,1379.2,258.8,1294.8,242.9z
			"/>
	</g>
</g>
<g class="st2">
	<g class="st3">
		<path class="st4" d="M87.2,819.9v115.4H48.1V678.2h63.2c18.7,0,32.5,1,41.4,3.1c8.8,2.1,16.5,5.4,23.1,10.1c8.1,6,14.4,14,19,24.2
			c4.6,10.1,6.8,21.3,6.8,33.5s-2.3,23.4-6.8,33.7c-4.6,10.3-10.9,18.4-19,24.2c-6.6,4.7-14.3,8-23.1,10s-22.6,3-41.4,3H103
			L87.2,819.9L87.2,819.9z M89.9,785.7h10.7c23.2,0,38.6-2.5,46.4-7.6c7.7-5,11.6-13.9,11.6-26.7c0-13.7-4.1-23.4-12.4-29
			c-8.3-5.6-23.5-8.4-45.6-8.4H89.9V785.7z"/>
		<path class="st4" d="M278.7,820.3v115.1h-39.2V678.2h58.3c17.1,0,30.4,1.1,39.8,3.3s17.5,5.9,24.2,11.1c8,6.2,14.1,14.2,18.4,24.1
			c4.3,9.8,6.5,20.6,6.5,32.3c0,20.6-5,36.7-14.9,48.4c-10,11.7-24.6,18.7-44.1,21l88.5,117H369l-85.5-115.1H278.7z M281.3,787.8
			h7.6c22.1,0,36.8-2.6,44.1-7.7c7.3-5.2,10.9-14.3,10.9-27.4c0-14.2-3.9-24.2-11.7-30c-7.8-5.8-22.2-8.7-43.3-8.7h-7.6V787.8z"/>
		<path class="st4" d="M704.7,807.3c0,18.3-3.4,35.5-10.3,51.8c-6.8,16.3-16.8,30.8-29.9,43.6c-13.2,12.8-28.2,22.5-44.8,29.3
			s-34.1,10.2-52.3,10.2c-18.5,0-36.2-3.4-53-10.3c-16.8-6.8-31.6-16.6-44.5-29.2c-13.1-12.8-23.1-27.2-29.9-43.4
			s-10.2-33.5-10.2-52c0-18.4,3.4-35.7,10.2-52c6.8-16.3,16.7-30.9,29.9-43.7c13.1-12.8,28-22.5,44.6-29.2s34.3-10,52.9-10
			c18.5,0,36,3.3,52.6,10s31.4,16.4,44.5,29.2c13.1,13,23.1,27.7,29.9,44C701.3,771.9,704.7,789.1,704.7,807.3z M661.1,807.3
			c0-13-2.4-25.4-7.1-37.1c-4.7-11.7-11.6-22.1-20.5-31.3c-8.7-9-18.7-16-30.1-20.8s-23.4-7.3-36.1-7.3c-12.6,0-24.7,2.4-36.1,7.2
			c-11.4,4.8-21.6,11.8-30.5,20.9c-8.9,9-15.7,19.4-20.4,31.1c-4.7,11.7-7,24.1-7,37.2c0,13,2.3,25.3,7,36.9
			c4.7,11.6,11.5,22,20.4,31.1s19,16.1,30.4,20.9c11.4,4.8,23.4,7.2,36.2,7.2c12.5,0,24.4-2.4,35.7-7.2s21.5-11.8,30.5-20.9
			c8.9-9.1,15.7-19.5,20.5-31.2C658.8,832.4,661.1,820.2,661.1,807.3z"/>
		<path class="st4" d="M791.8,819.9v115.4h-39.2V678.2h63.2c18.7,0,32.5,1,41.4,3.1c8.8,2.1,16.5,5.4,23.1,10.1
			c8.1,6,14.4,14,19,24.2c4.6,10.1,6.8,21.3,6.8,33.5s-2.3,23.4-6.8,33.7c-4.6,10.3-10.9,18.4-19,24.2c-6.6,4.7-14.3,8-23.1,10
			s-22.6,3-41.4,3h-8.3L791.8,819.9L791.8,819.9z M794.4,785.7h10.7c23.2,0,38.6-2.5,46.4-7.6c7.7-5,11.6-13.9,11.6-26.7
			c0-13.7-4.1-23.4-12.4-29c-8.3-5.6-23.5-8.4-45.6-8.4h-10.7V785.7z"/>
		<path class="st4" d="M944.1,935.3V678.2h143.5v35.5H985.9v64.5h101.7v36.7H985.9V898h101.7v37.4H944.1V935.3z"/>
		<path class="st4" d="M1174.8,820.3v115.1h-39.2V678.2h58.3c17.1,0,30.4,1.1,39.8,3.3s17.5,5.9,24.2,11.1
			c8,6.2,14.1,14.2,18.4,24.1c4.3,9.8,6.5,20.6,6.5,32.3c0,20.6-5,36.7-14.9,48.4c-10,11.7-24.7,18.7-44.1,21l88.5,117H1265
			l-85.5-115.1H1174.8z M1177.4,787.8h7.6c22.1,0,36.8-2.6,44.1-7.7c7.3-5.2,10.9-14.3,10.9-27.4c0-14.2-3.9-24.2-11.7-30
			c-7.8-5.8-22.2-8.7-43.3-8.7h-7.6V787.8z"/>
		<path class="st4" d="M1420.2,713.6v221.7h-41.8V713.6H1310v-35.5h178.1v35.5H1420.2z"/>
		<path class="st4" d="M1520.8,935.3V678.2h41.8v257.2h-41.8V935.3z"/>
		<path class="st4" d="M1622.7,935.3V678.2h143.5v35.5h-101.7v64.5h101.7v36.7h-101.7V898h101.7v37.4h-143.5V935.3z"/>
		<path class="st4" d="M1799.4,883.9l33.4-15.5c3.2,11.5,9,20.2,17.4,26.3c8.4,6,19.2,9,32.3,9c12.4,0,22.3-3.5,29.6-10.4
			c7.3-6.9,11-16.2,11-27.8c0-15.1-12.5-28.6-37.6-40.4c-3.5-1.8-6.2-3-8.1-3.9c-28.3-13.8-47.2-26.3-56.7-37.5
			c-9.4-11.2-14.1-24.9-14.1-41c0-21,7.1-37.9,21.3-50.9c14.2-13,32.9-19.5,55.9-19.5c19,0,34.8,3.7,47.6,11
			c12.8,7.3,21.6,17.8,26.5,31.5l-32.7,16.9c-5.2-8.1-10.8-14-17-17.7c-6.1-3.7-13.2-5.6-21.2-5.6c-11.2,0-20.2,2.9-26.8,8.8
			c-6.6,5.9-9.9,13.7-9.9,23.5c0,15.5,14.5,29.9,43.6,43.2c2.2,1.1,4,1.9,5.3,2.5c25.4,11.7,42.9,23.2,52.3,34.3
			c9.5,11.2,14.2,25.2,14.2,41.9c0,24.4-7.7,43.7-23,58.1c-15.3,14.3-36.1,21.5-62.2,21.5c-21.9,0-39.8-5-53.8-15.1
			S1803.7,902.6,1799.4,883.9z"/>
	</g>
	<g class="st3">
		<polygon class="st4" points="48.1,22.8 197.2,22.8 197.2,223.2 506.1,223.2 506.1,22.8 655.2,22.8 655.2,408.8 534.7,582.8 
			506.1,582.8 506.1,371 197.2,369.3 197.2,582.8 48.1,582.8 		"/>
		<path class="st4" d="M671,440l-97.2,142.9h639.5c86.1,0,155.9-76.1,155.9-170l0,0c0-93.9-69.8-170-155.9-170H879.7
			c-18.4,0-33.4-16.1-33.6-36.1l0,0c-0.3-20.5,14.9-37.2,33.6-37.2h992.8l93.4-146.7H842.5c-83.2,0-150.7,73.5-150.7,164.2l0,0
			c0,90.7,67.5,164.2,150.7,164.2h333c22.5,0,40.7,19.9,40.7,44.3l0,0c0,24.5-18.2,44.3-40.7,44.3H671V440z"/>
		<path class="st4" d="M1294.8,242.9h183c-29,58.5-20.1,107.5,20.3,148.5c31.3,31.8,73,48.6,115.8,48.6h192.3v-88.7h-263.7
			l82.9-108.4h340.5v340h-366.7c-50.3,0-100.4-11.1-145.9-34.4c-28.2-14.5-52.2-32-72-52.6C1431.1,407.7,1379.2,258.8,1294.8,242.9z
			"/>
	</g>
</g>
</svg>
